<svg width="357" height="202" viewBox="0 0 357 202" fill="none" xmlns="http://www.w3.org/2000/svg">
<path d="M23.6578 110.704V183.568H73.7698V202H0.617755V0.399986H72.9058V18.832H23.6578V92.272H68.5858V110.704H23.6578ZM89.1418 202H66.6778V0.399986H90.5818L137.526 147.856V0.399986H159.99V202H136.086L89.1418 54.832V202ZM144.494 18.832V0.399986H223.118V18.832H195.182V202H172.43V18.832H144.494ZM230.557 110.704V183.568H280.669V202H207.517V0.399986H279.805V18.832H230.557V92.272H275.485V110.704H230.557ZM273.576 202V0.399986H309.288C323.496 0.399986 334.536 4.91199 342.408 13.936C350.281 22.96 354.217 39.184 354.217 62.608V64.048C354.217 93.232 347.113 111.76 332.905 119.632L356.809 202H333.192L310.728 124.816H296.616V202H273.576ZM331.464 66.928V58.288C331.464 43.504 329.448 33.232 325.416 27.472C321.576 21.712 316.2 18.832 309.288 18.832H296.616V106.672H309.288C324.072 106.672 331.464 93.424 331.464 66.928Z" fill="white"/>
</svg>
